<svg xmlns="http://www.w3.org/2000/svg" xmlns:xlink="http://www.w3.org/1999/xlink" width="149" height="149" viewBox="0 0 149 149"><defs><style>.a{fill:#283d46;}.b{fill:#bdae9a;}.c{filter:url(#a);}</style><filter id="a" x="0" y="0" width="149" height="149" filterUnits="userSpaceOnUse"><feOffset dy="3" input="SourceAlpha"/><feGaussianBlur stdDeviation="3" result="b"/><feFlood flood-opacity="0.161"/><feComposite operator="in" in2="b"/><feComposite in="SourceGraphic"/></filter></defs><g transform="translate(-1677 -419)"><g class="c" transform="matrix(1, 0, 0, 1, 1677, 419)"><circle class="a" cx="65.5" cy="65.5" r="65.5" transform="translate(9 6)"/></g><path class="b" d="M99,54a9.829,9.829,0,0,1-9.549,9.856,2.2,2.2,0,0,0-1.822,3.3,10.943,10.943,0,0,1-5.938,15.882A15.386,15.386,0,0,0,67.171,72.659a2.2,2.2,0,1,0,0,4.39A10.976,10.976,0,1,1,56.2,88.024v-47.2a5.488,5.488,0,1,1,10.976,0,2.2,2.2,0,1,0,4.39,0A9.874,9.874,0,0,0,56.2,32.62V17.78a8.78,8.78,0,1,1,16.068,4.906A2.194,2.194,0,0,0,74.755,26a11.23,11.23,0,0,1,3.391-.538,10.976,10.976,0,0,1,0,21.951,2.2,2.2,0,1,0,0,4.39,15.391,15.391,0,0,0,13.127-7.42A9.915,9.915,0,0,1,99,54ZM43.024,9a8.787,8.787,0,0,0-7.288,13.687A2.189,2.189,0,0,1,33.245,26a11.23,11.23,0,0,0-3.391-.538A10.994,10.994,0,0,0,18.878,36.439a10.74,10.74,0,0,0,1.032,4.61,11.006,11.006,0,0,0,9.944,6.366,2.2,2.2,0,1,1,0,4.39,15.4,15.4,0,0,1-13.127-7.42,9.854,9.854,0,0,0,1.822,19.471,2.2,2.2,0,0,1,1.822,3.3,10.943,10.943,0,0,0,5.938,15.882A15.386,15.386,0,0,1,40.829,72.659a2.2,2.2,0,1,1,0,4.39A10.976,10.976,0,1,0,51.8,88.024V64.4A9.874,9.874,0,0,1,36.439,56.2a2.2,2.2,0,0,1,4.39,0,5.488,5.488,0,1,0,10.976,0V17.78A8.792,8.792,0,0,0,43.024,9Z" transform="translate(1697 436)"/></g></svg>