<svg xmlns="http://www.w3.org/2000/svg" width="67.714" height="63.434" viewBox="0 0 67.714 63.434"><defs><style>.a{fill:#7b6d5c;}</style></defs><g transform="translate(113.267 -317.012)"><g transform="translate(-374.946 311.333)"><path class="a" d="M73.157,11.709a11.579,11.579,0,0,0-15.62,0l-15,14.054-15-14.054a11.579,11.579,0,0,0-15.62,0,9.891,9.891,0,0,0,0,14.632l15,14.054-15,14.054a9.891,9.891,0,0,0,0,14.632,11.579,11.579,0,0,0,15.62,0l15-14.054,15,14.054a11.579,11.579,0,0,0,15.62,0,9.891,9.891,0,0,0,0-14.632l-15-14.054,15-14.054A9.889,9.889,0,0,0,73.157,11.709Z" transform="translate(253 -3)"/></g></g></svg>