<svg xmlns="http://www.w3.org/2000/svg" width="75.734" height="87.85" viewBox="0 0 75.734 87.85"><defs><style>.a{fill:#bdae9a;}</style></defs><g transform="translate(-144.952 -86.068)"><g transform="translate(144.952 86.068)"><g transform="translate(0 0)"><path class="a" d="M212.432,136.059a34.052,34.052,0,0,1-.31,4.581c.052-.361.1-.733.144-1.094a34.145,34.145,0,0,1-2.342,8.553c.134-.33.279-.66.413-.99a34.387,34.387,0,0,1-4.374,7.48l.65-.836a34.338,34.338,0,0,1-6.087,6.087l.836-.65a33.975,33.975,0,0,1-7.48,4.375c.33-.134.66-.279.99-.413a33.713,33.713,0,0,1-8.553,2.342c.361-.052.733-.1,1.094-.144a34.841,34.841,0,0,1-9.151,0c.361.052.733.1,1.094.144a34.145,34.145,0,0,1-8.553-2.342c.33.134.66.279.99.413a34.387,34.387,0,0,1-7.48-4.375l.836.65a34.338,34.338,0,0,1-6.087-6.087l.65.836a33.976,33.976,0,0,1-4.375-7.48c.134.33.279.66.413.99a33.713,33.713,0,0,1-2.342-8.553c.052.361.1.733.144,1.094a34.894,34.894,0,0,1-.01-9.1c-.052.361-.1.733-.144,1.094a34.188,34.188,0,0,1,2.352-8.615c-.134.33-.279.66-.413.99a34.249,34.249,0,0,1,4.416-7.532l-.65.836a61.291,61.291,0,0,1,5.179-5.674c2.167-2.167,4.385-4.261,6.634-6.335,4.024-3.714,8.12-7.346,12.257-10.936.867-.753,1.733-1.5,2.61-2.239h-5.84q3.683,3.142,7.3,6.355c4.56,4.034,9.079,8.12,13.412,12.391a68.733,68.733,0,0,1,5.943,6.438l-.65-.836a34.248,34.248,0,0,1,4.416,7.532c-.134-.33-.279-.66-.413-.99a34.187,34.187,0,0,1,2.352,8.615c-.052-.361-.1-.733-.144-1.094a41.181,41.181,0,0,1,.268,4.519,4.127,4.127,0,1,0,8.254,0,38.374,38.374,0,0,0-4.694-18.282,47.764,47.764,0,0,0-8.213-10.431c-2.889-2.93-5.9-5.736-8.945-8.512q-4.256-3.884-8.6-7.676c-1.465-1.279-2.94-2.569-4.426-3.828-.021-.021-.041-.031-.062-.052a4.305,4.305,0,0,0-2.92-1.207,4.628,4.628,0,0,0-2.92,1.207c-1.816,1.548-3.611,3.116-5.406,4.684-3.786,3.322-7.532,6.675-11.2,10.121a101.235,101.235,0,0,0-9.543,9.739,36.245,36.245,0,0,0-6.211,10.534,37.326,37.326,0,0,0-2.507,11.411,37.846,37.846,0,0,0,68.393,24.545,37.482,37.482,0,0,0,4.6-8.357,37.079,37.079,0,0,0,2.373-9.471,35.455,35.455,0,0,0,.289-4.436,4.173,4.173,0,0,0-4.127-4.127A4.217,4.217,0,0,0,212.432,136.059Z" transform="translate(-144.952 -86.068)"/></g></g><g transform="translate(182.822 90.209)"><path class="a" d="M545.737,172.05A33.737,33.737,0,0,1,512,205.787V126.2s19.861,16.9,26.051,24.421A33.582,33.582,0,0,1,545.737,172.05Z" transform="translate(-512 -126.2)"/></g></g></svg>