<svg xmlns="http://www.w3.org/2000/svg" width="99.067" height="91.566" viewBox="0 0 99.067 91.566"><defs><style>.a{fill:#bdae9a;}</style></defs><g transform="translate(-0.467 -4.217)"><path class="a" d="M16.37,9.936a6.389,6.389,0,0,0-7.312-1.6,8.065,8.065,0,0,0-4.993,7.037A6.594,6.594,0,0,0,6.19,20.113L36.074,50,6.192,79.889a6.586,6.586,0,0,0-2.126,4.733,8.067,8.067,0,0,0,4.991,7.039,6.388,6.388,0,0,0,7.313-1.6L51.342,55.085a7.276,7.276,0,0,0,0-10.174Z"/><path class="a" d="M58.888,9.936a6.387,6.387,0,0,0-7.311-1.6,8.065,8.065,0,0,0-4.993,7.037,6.594,6.594,0,0,0,2.125,4.735L78.594,50,48.71,79.889a6.586,6.586,0,0,0-2.126,4.733,8.067,8.067,0,0,0,4.991,7.039,6.387,6.387,0,0,0,7.312-1.6L93.862,55.085a7.278,7.278,0,0,0,0-10.174Z"/><path class="a" d="M57.014,50a10.7,10.7,0,0,0-3.128-7.632L18.914,7.392A10.045,10.045,0,0,0,7.684,5.014,11.634,11.634,0,0,0,.468,15.378a10.181,10.181,0,0,0,3.179,7.279L30.988,50,3.646,77.343A10.188,10.188,0,0,0,.467,84.622h0A11.635,11.635,0,0,0,7.681,94.986,10.056,10.056,0,0,0,18.914,92.61L53.887,57.632A10.7,10.7,0,0,0,57.014,50Zm-5.672,5.087L16.37,90.063a6.389,6.389,0,0,1-7.313,1.6,8.067,8.067,0,0,1-4.991-7.039,6.59,6.59,0,0,1,2.126-4.733L36.074,50,6.19,20.113a6.6,6.6,0,0,1-2.125-4.735A8.065,8.065,0,0,1,9.058,8.341a6.388,6.388,0,0,1,7.312,1.6L51.342,44.913a7.274,7.274,0,0,1,0,10.173Z"/><path class="a" d="M96.4,42.367,61.434,7.392A10.047,10.047,0,0,0,50.2,5.014a11.634,11.634,0,0,0-7.216,10.364,10.181,10.181,0,0,0,3.179,7.279L73.507,50,46.166,77.343a10.188,10.188,0,0,0-3.179,7.279h0A11.635,11.635,0,0,0,50.2,94.986,10.056,10.056,0,0,0,61.434,92.61L96.408,57.632a10.877,10.877,0,0,0,0-15.265ZM93.862,55.086,58.888,90.063a6.387,6.387,0,0,1-7.312,1.6,8.066,8.066,0,0,1-4.991-7.039,6.59,6.59,0,0,1,2.126-4.733L78.594,50,48.708,20.113a6.6,6.6,0,0,1-2.125-4.735,8.067,8.067,0,0,1,4.993-7.037,6.386,6.386,0,0,1,7.311,1.6L93.862,44.913a7.277,7.277,0,0,1,0,10.173Z"/></g></svg>