<svg xmlns="http://www.w3.org/2000/svg" xmlns:xlink="http://www.w3.org/1999/xlink" width="149" height="149" viewBox="0 0 149 149"><defs><style>.a{fill:#283d46;}.b{fill:#bdae9a;}.c{filter:url(#a);}</style><filter id="a" x="0" y="0" width="149" height="149" filterUnits="userSpaceOnUse"><feOffset dy="3" input="SourceAlpha"/><feGaussianBlur stdDeviation="3" result="b"/><feFlood flood-opacity="0.161"/><feComposite operator="in" in2="b"/><feComposite in="SourceGraphic"/></filter></defs><g transform="translate(-1677 -419)"><g class="c" transform="matrix(1, 0, 0, 1, 1677, 419)"><circle class="a" cx="65.5" cy="65.5" r="65.5" transform="translate(9 6)"/></g><g transform="translate(1338.467 642)"><g transform="translate(369.933 -191)"><path class="b" d="M36.275,9.659a5.555,5.555,0,0,1,6.357-1.387,7.012,7.012,0,0,1,4.341,6.118,5.733,5.733,0,0,1-1.848,4.117L19.143,44.49,45.124,70.479a5.726,5.726,0,0,1,1.848,4.115,7.014,7.014,0,0,1-4.339,6.12,5.554,5.554,0,0,1-6.358-1.389L5.868,48.913a6.326,6.326,0,0,1,0-8.846Z" transform="translate(36.033 -4.686)"/><path class="b" d="M78.795,9.659a5.554,5.554,0,0,1,6.357-1.387,7.012,7.012,0,0,1,4.341,6.118,5.733,5.733,0,0,1-1.848,4.117L61.661,44.49,87.644,70.479a5.726,5.726,0,0,1,1.848,4.115,7.014,7.014,0,0,1-4.339,6.12A5.553,5.553,0,0,1,78.8,79.325L48.386,48.913a6.328,6.328,0,0,1,0-8.846Z" transform="translate(-43.455 -4.686)"/><path class="b" d="M.467,44.022a9.3,9.3,0,0,1,2.72-6.636L33.593,6.977A8.734,8.734,0,0,1,43.357,4.91a10.115,10.115,0,0,1,6.274,9.011,8.851,8.851,0,0,1-2.764,6.329L23.1,44.021,46.868,67.8a8.858,8.858,0,0,1,2.764,6.329h0a10.116,10.116,0,0,1-6.272,9.01,8.744,8.744,0,0,1-9.767-2.066L3.186,50.659A9.307,9.307,0,0,1,.467,44.022ZM5.4,48.445,35.805,78.856a5.555,5.555,0,0,0,6.358,1.389,7.014,7.014,0,0,0,4.339-6.12,5.729,5.729,0,0,0-1.848-4.115L18.673,44.021,44.656,18.038A5.734,5.734,0,0,0,46.5,13.921,7.012,7.012,0,0,0,42.163,7.8a5.554,5.554,0,0,0-6.357,1.387L5.4,39.6a6.325,6.325,0,0,0,0,8.845Z" transform="translate(36.502 -4.217)"/><path class="b" d="M45.708,37.386,76.113,6.977A8.736,8.736,0,0,1,85.878,4.91a10.115,10.115,0,0,1,6.274,9.011,8.852,8.852,0,0,1-2.764,6.329L65.616,44.021,89.388,67.8a8.858,8.858,0,0,1,2.764,6.329h0a10.116,10.116,0,0,1-6.272,9.01,8.744,8.744,0,0,1-9.767-2.066L45.7,50.659a9.457,9.457,0,0,1,0-13.272Zm2.211,11.059L78.327,78.856a5.553,5.553,0,0,0,6.357,1.389,7.013,7.013,0,0,0,4.339-6.12,5.729,5.729,0,0,0-1.848-4.115L61.193,44.021,87.178,18.038a5.734,5.734,0,0,0,1.848-4.117A7.014,7.014,0,0,0,84.684,7.8a5.552,5.552,0,0,0-6.357,1.387L47.919,39.6a6.327,6.327,0,0,0,0,8.845Z" transform="translate(-42.987 -4.217)"/></g></g></g></svg>