<svg xmlns="http://www.w3.org/2000/svg" width="99.067" height="91.566" viewBox="0 0 99.067 91.566"><defs><style>.a{fill:#7b6d5c;}</style></defs><g transform="translate(0)"><g transform="translate(0 0)"><path class="a" d="M41.111,9.936a6.389,6.389,0,0,1,7.312-1.595,8.065,8.065,0,0,1,4.993,7.037,6.594,6.594,0,0,1-2.125,4.735L21.407,50,51.289,79.889a6.586,6.586,0,0,1,2.126,4.733,8.067,8.067,0,0,1-4.991,7.039,6.388,6.388,0,0,1-7.313-1.6L6.139,55.085a7.276,7.276,0,0,1,0-10.174Z" transform="translate(42.053 -4.217)"/><path class="a" d="M83.631,9.936a6.388,6.388,0,0,1,7.311-1.595,8.065,8.065,0,0,1,4.993,7.037,6.594,6.594,0,0,1-2.125,4.735L63.925,50,93.809,79.889a6.586,6.586,0,0,1,2.126,4.733,8.067,8.067,0,0,1-4.991,7.039,6.387,6.387,0,0,1-7.312-1.6L48.657,55.085a7.278,7.278,0,0,1,0-10.174Z" transform="translate(-42.985 -4.217)"/><path class="a" d="M.467,50A10.7,10.7,0,0,1,3.6,42.367L38.567,7.392A10.045,10.045,0,0,1,49.8,5.014a11.634,11.634,0,0,1,7.216,10.364,10.181,10.181,0,0,1-3.179,7.279L26.493,50,53.835,77.343a10.188,10.188,0,0,1,3.179,7.279h0A11.635,11.635,0,0,1,49.8,94.986,10.056,10.056,0,0,1,38.567,92.61L3.594,57.632A10.7,10.7,0,0,1,.467,50Zm5.672,5.087L41.111,90.063a6.389,6.389,0,0,0,7.313,1.6,8.067,8.067,0,0,0,4.991-7.039,6.59,6.59,0,0,0-2.126-4.733L21.407,50,51.291,20.113a6.6,6.6,0,0,0,2.125-4.735,8.065,8.065,0,0,0-4.993-7.037,6.388,6.388,0,0,0-7.312,1.595L6.139,44.913a7.274,7.274,0,0,0,0,10.173Z" transform="translate(42.053 -4.217)"/><path class="a" d="M46.116,42.367,81.087,7.392A10.047,10.047,0,0,1,92.318,5.014a11.634,11.634,0,0,1,7.216,10.364,10.181,10.181,0,0,1-3.179,7.279L69.014,50,96.355,77.343a10.188,10.188,0,0,1,3.179,7.279h0A11.635,11.635,0,0,1,92.32,94.986,10.056,10.056,0,0,1,81.087,92.61L46.113,57.632a10.877,10.877,0,0,1,0-15.265Zm2.543,12.719L83.633,90.063a6.387,6.387,0,0,0,7.312,1.6,8.066,8.066,0,0,0,4.991-7.039,6.59,6.59,0,0,0-2.126-4.733L63.927,50,93.813,20.113a6.6,6.6,0,0,0,2.125-4.735,8.067,8.067,0,0,0-4.993-7.037,6.386,6.386,0,0,0-7.311,1.595L48.659,44.913a7.277,7.277,0,0,0,0,10.173Z" transform="translate(-42.987 -4.217)"/></g></g></svg>