<svg xmlns="http://www.w3.org/2000/svg" width="63.855" height="64" viewBox="0 0 63.855 64"><defs><style>.a{fill:#7b6d5c;}</style></defs><g transform="translate(-7.684 -6.775)"><g transform="translate(7.684 6.775)"><path class="a" d="M65.075,9.074a7.827,7.827,0,0,0-11.083,0L13.67,49.317a1.38,1.38,0,0,0-.314.393.077.077,0,0,1-.079.079c-.079.157-.157.236-.157.393v.079L7.775,67.71a2.539,2.539,0,0,0,.55,2.358,2.262,2.262,0,0,0,1.651.707,2.176,2.176,0,0,0,.707-.079l17.371-5.345h.079c.157-.079.314-.079.393-.157a.077.077,0,0,0,.079-.079A.785.785,0,0,0,29,64.8L69.24,24.558a7.827,7.827,0,0,0,0-11.083Z" transform="translate(-7.684 -6.775)"/></g></g></svg>