<svg xmlns="http://www.w3.org/2000/svg" width="105.12" height="105.12" viewBox="0 0 105.12 105.12"><defs><style>.a{fill:#bdae9a;}</style></defs><g transform="translate(0 0)"><path class="a" d="M32.28,58.56a6.568,6.568,0,0,0,6.57-6.57V38.85H51.99a6.57,6.57,0,0,0,0-13.14H38.85V12.57a6.57,6.57,0,1,0-13.14,0V25.71H12.57a6.57,6.57,0,1,0,0,13.14H25.71V51.99A6.568,6.568,0,0,0,32.28,58.56Z" transform="translate(20.28 20.28)"/><path class="a" d="M54.56,2A52.56,52.56,0,1,0,81.582,99.591,6.571,6.571,0,0,0,74.809,88.33,39.556,39.556,0,1,1,88.323,74.815a6.572,6.572,0,0,0,11.268,6.767A52.494,52.494,0,0,0,54.56,2Z" transform="translate(-2 -2)"/></g></svg>