<svg xmlns="http://www.w3.org/2000/svg" xmlns:xlink="http://www.w3.org/1999/xlink" width="149" height="149" viewBox="0 0 149 149"><defs><style>.a{fill:#283d46;}.b{fill:#bdae9a;}.c{filter:url(#a);}</style><filter id="a" x="0" y="0" width="149" height="149" filterUnits="userSpaceOnUse"><feOffset dy="3" input="SourceAlpha"/><feGaussianBlur stdDeviation="3" result="b"/><feFlood flood-opacity="0.161"/><feComposite operator="in" in2="b"/><feComposite in="SourceGraphic"/></filter></defs><g transform="translate(-1677 -922)"><g class="c" transform="matrix(1, 0, 0, 1, 1677, 922)"><circle class="a" cx="65.5" cy="65.5" r="65.5" transform="translate(9 6)"/></g><g transform="translate(1709.19 951)"><path class="b" d="M67.518,5H58.991V28.266H21.771V5H13.393A5.6,5.6,0,0,0,7.81,10.583V73.855a5.6,5.6,0,0,0,5.583,5.583H72.017A5.6,5.6,0,0,0,77.6,73.855V17.1ZM63.639,65.485H21.771V37.571H63.639Zm-9.3-41.876H26.42V5H54.334Z" transform="translate(0)"/></g></g></svg>