<svg xmlns="http://www.w3.org/2000/svg" xmlns:xlink="http://www.w3.org/1999/xlink" width="149" height="149" viewBox="0 0 149 149"><defs><style>.a{fill:#283d46;}.b{fill:#bdae9a;fill-rule:evenodd;}.c{filter:url(#a);}</style><filter id="a" x="0" y="0" width="149" height="149" filterUnits="userSpaceOnUse"><feOffset dy="3" input="SourceAlpha"/><feGaussianBlur stdDeviation="3" result="b"/><feFlood flood-opacity="0.161"/><feComposite operator="in" in2="b"/><feComposite in="SourceGraphic"/></filter></defs><g transform="translate(-1677 -755)"><g class="c" transform="matrix(1, 0, 0, 1, 1677, 755)"><circle class="a" cx="65.5" cy="65.5" r="65.5" transform="translate(9 6)"/></g><g transform="translate(1701.88 776.85)"><path class="b" d="M94.83,50A44.81,44.81,0,0,0,17.12,19.56V11.15a6,6,0,0,0-12,0v23.9a6,6,0,0,0,6,6H35.06a6,6,0,1,0,0-12H24.64A32.88,32.88,0,1,1,50,82.87h0a6,6,0,0,0,0,12h.12A44.82,44.82,0,0,0,94.83,50Z"/></g></g></svg>